<svg xmlns="http://www.w3.org/2000/svg" xmlns:xlink="http://www.w3.org/1999/xlink" version="1.1" baseProfile="full" width="900" height="500" style="position:absolute;left:0;top:0;user-select:none"><rect width="900" height="500" x="0" y="0" id="0" fill="none"></rect><g><path d="M522.2483 63.5056L527.667 49.5185L542.667 49.5185" fill="none" stroke="#5470c6"></path><path d="M636.4944 322.2483L650.4815 327.667L665.4815 327.667" fill="none" stroke="#91cc75"></path><path d="M250 250L235 250L220 250" fill="none" stroke="#fac858"></path><path d="M450 50A200 200 0 0 1 584.7391 102.1982L500.5272 194.5743A75 75 0 0 0 450 175Z" fill="#5470c6"></path><path d="M584.7391 102.1982A200 200 0 0 1 450 450L450 325A75 75 0 0 0 500.5272 194.5743Z" fill="#91cc75"></path><path d="M450 450A200 200 0 1 1 450 50L450 175A75 75 0 0 0 450 325Z" fill="#fac858"></path><text dominant-baseline="central" text-anchor="start" style="font-size:12px;font-family:Microsoft YaHei;" xml:space="preserve" transform="translate(547.667 49.5185)" fill="#333" stroke="rgb(255,255,255)" stroke-width="2" paint-order="stroke" stroke-miterlimit="2">困难: 4 道</text><text dominant-baseline="central" text-anchor="start" style="font-size:12px;font-family:Microsoft YaHei;" xml:space="preserve" transform="translate(670.4815 327.667)" fill="#333" stroke="rgb(255,255,255)" stroke-width="2" paint-order="stroke" stroke-miterlimit="2">中等: 13 道</text><text dominant-baseline="central" text-anchor="end" style="font-size:12px;font-family:Microsoft YaHei;" xml:space="preserve" transform="translate(215 250)" fill="#333" stroke="rgb(255,255,255)" stroke-width="2" paint-order="stroke" stroke-miterlimit="2">简单: 17 道</text><path d="M-5 -5l64 0l0 72l-64 0Z" transform="translate(23 80)" fill="none" stroke="#ccc"></path><path d="M3.5 0L21.5 0A3.5 3.5 0 0 1 25 3.5L25 10.5A3.5 3.5 0 0 1 21.5 14L3.5 14A3.5 3.5 0 0 1 0 10.5L0 3.5A3.5 3.5 0 0 1 3.5 0" transform="translate(23 80)" fill="#5470c6"></path><text dominant-baseline="central" text-anchor="start" style="font-size:12px;font-family:Microsoft YaHei;" x="30" y="7" transform="translate(23 80)" fill="#333">困难</text><path d="M3.5 0L21.5 0A3.5 3.5 0 0 1 25 3.5L25 10.5A3.5 3.5 0 0 1 21.5 14L3.5 14A3.5 3.5 0 0 1 0 10.5L0 3.5A3.5 3.5 0 0 1 3.5 0" transform="translate(23 104)" fill="#91cc75"></path><text dominant-baseline="central" text-anchor="start" style="font-size:12px;font-family:Microsoft YaHei;" x="30" y="7" transform="translate(23 104)" fill="#333">中等</text><path d="M3.5 0L21.5 0A3.5 3.5 0 0 1 25 3.5L25 10.5A3.5 3.5 0 0 1 21.5 14L3.5 14A3.5 3.5 0 0 1 0 10.5L0 3.5A3.5 3.5 0 0 1 3.5 0" transform="translate(23 128)" fill="#fac858"></path><text dominant-baseline="central" text-anchor="start" style="font-size:12px;font-family:Microsoft YaHei;" x="30" y="7" transform="translate(23 128)" fill="#333">简单</text><path d="M-5 -5l158.5176 0l0 28l-158.5176 0Z" transform="translate(5 5)" fill="rgb(0,0,0)" fill-opacity="0" stroke="#ccc" stroke-width="0"></path><text dominant-baseline="central" text-anchor="start" style="font-size:18px;font-family:Microsoft YaHei;font-weight:bold;" xml:space="preserve" y="9" transform="translate(5 5)" fill="#464646">AcWing 题目统计</text></g></svg>