<svg xmlns="http://www.w3.org/2000/svg" xmlns:xlink="http://www.w3.org/1999/xlink" version="1.1" baseProfile="full" width="900" height="500" style="position:absolute;left:0;top:0;user-select:none"><rect width="900" height="500" x="0" y="0" id="0" fill="none"></rect><g><path d="M486.7499 53.4054L489.5061 38.6608L504.5061 38.6608" fill="none" stroke="#5470c6"></path><path d="M555.2864 79.9566L563.1829 67.2033L578.1829 67.2033" fill="none" stroke="#91cc75"></path><path d="M609.6034 129.4731L621.5737 120.4336L636.5737 120.4336" fill="none" stroke="#fac858"></path><path d="M649.1468 268.4537L664.0828 269.8377L679.0828 269.8377" fill="none" stroke="#ee6666"></path><path d="M522.2483 436.4944L527.667 450.4815L542.667 450.4815" fill="none" stroke="#73c0de"></path><path d="M290.3966 370.5269L278.4263 379.5664L263.4263 379.5664" fill="none" stroke="#3ba272"></path><path d="M315.2609 102.1982L305.1554 91.1131L290.1554 91.1131" fill="none" stroke="#fc8452"></path><path d="M450 50A200 200 0 0 1 522.2483 63.5056L477.0931 180.0646A75 75 0 0 0 450 175Z" fill="#5470c6"></path><path d="M522.2483 63.5056A200 200 0 0 1 584.7391 102.1982L500.5272 194.5743A75 75 0 0 0 477.0931 180.0646Z" fill="#91cc75"></path><path d="M584.7391 102.1982A200 200 0 0 1 629.0327 160.8523L517.1372 216.5696A75 75 0 0 0 500.5272 194.5743Z" fill="#fac858"></path><path d="M629.0327 160.8523A200 200 0 0 1 609.6034 370.5269L509.8513 295.1976A75 75 0 0 0 517.1372 216.5696Z" fill="#ee6666"></path><path d="M609.6034 370.5269A200 200 0 0 1 413.2501 446.5946L436.2188 323.723A75 75 0 0 0 509.8513 295.1976Z" fill="#73c0de"></path><path d="M413.2501 446.5946A200 200 0 0 1 250.8532 231.5463L375.3199 243.0799A75 75 0 0 0 436.2188 323.723Z" fill="#3ba272"></path><path d="M250.8532 231.5463A200 200 0 0 1 450 50L450 175A75 75 0 0 0 375.3199 243.0799Z" fill="#fc8452"></path><text dominant-baseline="central" text-anchor="start" style="font-size:12px;font-family:Microsoft YaHei;" xml:space="preserve" transform="translate(509.5061 38.6608)" fill="#333" stroke="rgb(255,255,255)" stroke-width="2" paint-order="stroke" stroke-miterlimit="2">1000: 1 道</text><text dominant-baseline="central" text-anchor="start" style="font-size:12px;font-family:Microsoft YaHei;" xml:space="preserve" transform="translate(583.1829 67.2033)" fill="#333" stroke="rgb(255,255,255)" stroke-width="2" paint-order="stroke" stroke-miterlimit="2">1300: 1 道</text><text dominant-baseline="central" text-anchor="start" style="font-size:12px;font-family:Microsoft YaHei;" xml:space="preserve" transform="translate(641.5737 120.4336)" fill="#333" stroke="rgb(255,255,255)" stroke-width="2" paint-order="stroke" stroke-miterlimit="2">1800: 1 道</text><text dominant-baseline="central" text-anchor="start" style="font-size:12px;font-family:Microsoft YaHei;" xml:space="preserve" transform="translate(684.0828 269.8377)" fill="#333" stroke="rgb(255,255,255)" stroke-width="2" paint-order="stroke" stroke-miterlimit="2">1400: 3 道</text><text dominant-baseline="central" text-anchor="start" style="font-size:12px;font-family:Microsoft YaHei;" xml:space="preserve" transform="translate(547.667 450.4815)" fill="#333" stroke="rgb(255,255,255)" stroke-width="2" paint-order="stroke" stroke-miterlimit="2">1100: 3 道</text><text dominant-baseline="central" text-anchor="end" style="font-size:12px;font-family:Microsoft YaHei;" xml:space="preserve" transform="translate(258.4263 379.5664)" fill="#333" stroke="rgb(255,255,255)" stroke-width="2" paint-order="stroke" stroke-miterlimit="2">unrated: 4 道</text><text dominant-baseline="central" text-anchor="end" style="font-size:12px;font-family:Microsoft YaHei;" xml:space="preserve" transform="translate(285.1554 91.1131)" fill="#333" stroke="rgb(255,255,255)" stroke-width="2" paint-order="stroke" stroke-miterlimit="2">800: 4 道</text><path d="M-5 -5l84.8594 0l0 168l-84.8594 0Z" transform="translate(23 80)" fill="none" stroke="#ccc"></path><path d="M3.5 0L21.5 0A3.5 3.5 0 0 1 25 3.5L25 10.5A3.5 3.5 0 0 1 21.5 14L3.5 14A3.5 3.5 0 0 1 0 10.5L0 3.5A3.5 3.5 0 0 1 3.5 0" transform="translate(23 80)" fill="#5470c6"></path><text dominant-baseline="central" text-anchor="start" style="font-size:12px;font-family:Microsoft YaHei;" x="30" y="7" transform="translate(23 80)" fill="#333">1000</text><path d="M3.5 0L21.5 0A3.5 3.5 0 0 1 25 3.5L25 10.5A3.5 3.5 0 0 1 21.5 14L3.5 14A3.5 3.5 0 0 1 0 10.5L0 3.5A3.5 3.5 0 0 1 3.5 0" transform="translate(23 104)" fill="#91cc75"></path><text dominant-baseline="central" text-anchor="start" style="font-size:12px;font-family:Microsoft YaHei;" x="30" y="7" transform="translate(23 104)" fill="#333">1300</text><path d="M3.5 0L21.5 0A3.5 3.5 0 0 1 25 3.5L25 10.5A3.5 3.5 0 0 1 21.5 14L3.5 14A3.5 3.5 0 0 1 0 10.5L0 3.5A3.5 3.5 0 0 1 3.5 0" transform="translate(23 128)" fill="#fac858"></path><text dominant-baseline="central" text-anchor="start" style="font-size:12px;font-family:Microsoft YaHei;" x="30" y="7" transform="translate(23 128)" fill="#333">1800</text><path d="M3.5 0L21.5 0A3.5 3.5 0 0 1 25 3.5L25 10.5A3.5 3.5 0 0 1 21.5 14L3.5 14A3.5 3.5 0 0 1 0 10.5L0 3.5A3.5 3.5 0 0 1 3.5 0" transform="translate(23 152)" fill="#ee6666"></path><text dominant-baseline="central" text-anchor="start" style="font-size:12px;font-family:Microsoft YaHei;" x="30" y="7" transform="translate(23 152)" fill="#333">1400</text><path d="M3.5 0L21.5 0A3.5 3.5 0 0 1 25 3.5L25 10.5A3.5 3.5 0 0 1 21.5 14L3.5 14A3.5 3.5 0 0 1 0 10.5L0 3.5A3.5 3.5 0 0 1 3.5 0" transform="translate(23 176)" fill="#73c0de"></path><text dominant-baseline="central" text-anchor="start" style="font-size:12px;font-family:Microsoft YaHei;" x="30" y="7" transform="translate(23 176)" fill="#333">1100</text><path d="M3.5 0L21.5 0A3.5 3.5 0 0 1 25 3.5L25 10.5A3.5 3.5 0 0 1 21.5 14L3.5 14A3.5 3.5 0 0 1 0 10.5L0 3.5A3.5 3.5 0 0 1 3.5 0" transform="translate(23 200)" fill="#3ba272"></path><text dominant-baseline="central" text-anchor="start" style="font-size:12px;font-family:Microsoft YaHei;" x="30" y="7" transform="translate(23 200)" fill="#333">unrated</text><path d="M3.5 0L21.5 0A3.5 3.5 0 0 1 25 3.5L25 10.5A3.5 3.5 0 0 1 21.5 14L3.5 14A3.5 3.5 0 0 1 0 10.5L0 3.5A3.5 3.5 0 0 1 3.5 0" transform="translate(23 224)" fill="#fc8452"></path><text dominant-baseline="central" text-anchor="start" style="font-size:12px;font-family:Microsoft YaHei;" x="30" y="7" transform="translate(23 224)" fill="#333">800</text><path d="M-5 -5l189.0771 0l0 28l-189.0771 0Z" transform="translate(5 5)" fill="rgb(0,0,0)" fill-opacity="0" stroke="#ccc" stroke-width="0"></path><text dominant-baseline="central" text-anchor="start" style="font-size:18px;font-family:Microsoft YaHei;font-weight:bold;" xml:space="preserve" y="9" transform="translate(5 5)" fill="#464646">Codeforces 题目统计</text></g></svg>