<svg xmlns="http://www.w3.org/2000/svg" xmlns:xlink="http://www.w3.org/1999/xlink" version="1.1" baseProfile="full" width="900" height="500" style="position:absolute;left:0;top:0;user-select:none"><rect width="900" height="500" x="0" y="0" id="0" fill="none"></rect><g><path d="M478.463 52.0357L480.5977 37.1884L495.5977 37.1884" fill="none" stroke="#5470c6"></path><path d="M558.1282 81.7493L566.2378 69.1305L581.2378 69.1305" fill="none" stroke="#91cc75"></path><path d="M641.8986 193.6535L656.291 189.4275L671.291 189.4275" fill="none" stroke="#fac858"></path><path d="M618.2507 358.1282L630.8695 366.2378L645.8695 366.2378" fill="none" stroke="#ee6666"></path><path d="M450 450L450 465L465 465" fill="none" stroke="#73c0de"></path><path d="M268.0736 333.083L254.4291 339.3142L239.4291 339.3142" fill="none" stroke="#3ba272"></path><path d="M319.0279 98.8501L309.2049 87.5138L294.2049 87.5138" fill="none" stroke="#fc8452"></path><path d="M450 50A200 200 0 0 1 506.3465 58.1014L471.1299 178.038A75 75 0 0 0 450 175Z" fill="#5470c6"></path><path d="M506.3465 58.1014A200 200 0 0 1 601.1499 119.0279L506.6812 200.8854A75 75 0 0 0 471.1299 178.038Z" fill="#91cc75"></path><path d="M601.1499 119.0279A200 200 0 0 1 647.9643 278.463L524.2366 260.6736A75 75 0 0 0 506.6812 200.8854Z" fill="#fac858"></path><path d="M647.9643 278.463A200 200 0 0 1 558.1282 418.2507L490.5481 313.094A75 75 0 0 0 524.2366 260.6736Z" fill="#ee6666"></path><path d="M558.1282 418.2507A200 200 0 0 1 341.8718 418.2507L409.4519 313.094A75 75 0 0 0 490.5481 313.094Z" fill="#73c0de"></path><path d="M341.8718 418.2507A200 200 0 0 1 252.0357 221.537L375.7634 239.3264A75 75 0 0 0 409.4519 313.094Z" fill="#3ba272"></path><path d="M252.0357 221.537A200 200 0 0 1 450 50L450 175A75 75 0 0 0 375.7634 239.3264Z" fill="#fc8452"></path><text dominant-baseline="central" text-anchor="start" style="font-size:12px;font-family:Microsoft YaHei;" xml:space="preserve" transform="translate(500.5977 37.1884)" fill="#333" stroke="rgb(255,255,255)" stroke-width="2" paint-order="stroke" stroke-miterlimit="2">1300: 1 道</text><text dominant-baseline="central" text-anchor="start" style="font-size:12px;font-family:Microsoft YaHei;" xml:space="preserve" transform="translate(586.2378 69.1305)" fill="#333" stroke="rgb(255,255,255)" stroke-width="2" paint-order="stroke" stroke-miterlimit="2">1000: 2 道</text><text dominant-baseline="central" text-anchor="start" style="font-size:12px;font-family:Microsoft YaHei;" xml:space="preserve" transform="translate(676.291 189.4275)" fill="#333" stroke="rgb(255,255,255)" stroke-width="2" paint-order="stroke" stroke-miterlimit="2">1400: 3 道</text><text dominant-baseline="central" text-anchor="start" style="font-size:12px;font-family:Microsoft YaHei;" xml:space="preserve" transform="translate(650.8695 366.2378)" fill="#333" stroke="rgb(255,255,255)" stroke-width="2" paint-order="stroke" stroke-miterlimit="2">1100: 3 道</text><text dominant-baseline="central" text-anchor="start" style="font-size:12px;font-family:Microsoft YaHei;" xml:space="preserve" transform="translate(470 465)" fill="#333" stroke="rgb(255,255,255)" stroke-width="2" paint-order="stroke" stroke-miterlimit="2">1800: 4 道</text><text dominant-baseline="central" text-anchor="end" style="font-size:12px;font-family:Microsoft YaHei;" xml:space="preserve" transform="translate(234.4291 339.3142)" fill="#333" stroke="rgb(255,255,255)" stroke-width="2" paint-order="stroke" stroke-miterlimit="2">unrated: 4 道</text><text dominant-baseline="central" text-anchor="end" style="font-size:12px;font-family:Microsoft YaHei;" xml:space="preserve" transform="translate(289.2049 87.5138)" fill="#333" stroke="rgb(255,255,255)" stroke-width="2" paint-order="stroke" stroke-miterlimit="2">800: 5 道</text><path d="M-5 -5l84.8594 0l0 168l-84.8594 0Z" transform="translate(23 80)" fill="none" stroke="#ccc"></path><path d="M3.5 0L21.5 0A3.5 3.5 0 0 1 25 3.5L25 10.5A3.5 3.5 0 0 1 21.5 14L3.5 14A3.5 3.5 0 0 1 0 10.5L0 3.5A3.5 3.5 0 0 1 3.5 0" transform="translate(23 80)" fill="#5470c6"></path><text dominant-baseline="central" text-anchor="start" style="font-size:12px;font-family:Microsoft YaHei;" x="30" y="7" transform="translate(23 80)" fill="#333">1300</text><path d="M3.5 0L21.5 0A3.5 3.5 0 0 1 25 3.5L25 10.5A3.5 3.5 0 0 1 21.5 14L3.5 14A3.5 3.5 0 0 1 0 10.5L0 3.5A3.5 3.5 0 0 1 3.5 0" transform="translate(23 104)" fill="#91cc75"></path><text dominant-baseline="central" text-anchor="start" style="font-size:12px;font-family:Microsoft YaHei;" x="30" y="7" transform="translate(23 104)" fill="#333">1000</text><path d="M3.5 0L21.5 0A3.5 3.5 0 0 1 25 3.5L25 10.5A3.5 3.5 0 0 1 21.5 14L3.5 14A3.5 3.5 0 0 1 0 10.5L0 3.5A3.5 3.5 0 0 1 3.5 0" transform="translate(23 128)" fill="#fac858"></path><text dominant-baseline="central" text-anchor="start" style="font-size:12px;font-family:Microsoft YaHei;" x="30" y="7" transform="translate(23 128)" fill="#333">1400</text><path d="M3.5 0L21.5 0A3.5 3.5 0 0 1 25 3.5L25 10.5A3.5 3.5 0 0 1 21.5 14L3.5 14A3.5 3.5 0 0 1 0 10.5L0 3.5A3.5 3.5 0 0 1 3.5 0" transform="translate(23 152)" fill="#ee6666"></path><text dominant-baseline="central" text-anchor="start" style="font-size:12px;font-family:Microsoft YaHei;" x="30" y="7" transform="translate(23 152)" fill="#333">1100</text><path d="M3.5 0L21.5 0A3.5 3.5 0 0 1 25 3.5L25 10.5A3.5 3.5 0 0 1 21.5 14L3.5 14A3.5 3.5 0 0 1 0 10.5L0 3.5A3.5 3.5 0 0 1 3.5 0" transform="translate(23 176)" fill="#73c0de"></path><text dominant-baseline="central" text-anchor="start" style="font-size:12px;font-family:Microsoft YaHei;" x="30" y="7" transform="translate(23 176)" fill="#333">1800</text><path d="M3.5 0L21.5 0A3.5 3.5 0 0 1 25 3.5L25 10.5A3.5 3.5 0 0 1 21.5 14L3.5 14A3.5 3.5 0 0 1 0 10.5L0 3.5A3.5 3.5 0 0 1 3.5 0" transform="translate(23 200)" fill="#3ba272"></path><text dominant-baseline="central" text-anchor="start" style="font-size:12px;font-family:Microsoft YaHei;" x="30" y="7" transform="translate(23 200)" fill="#333">unrated</text><path d="M3.5 0L21.5 0A3.5 3.5 0 0 1 25 3.5L25 10.5A3.5 3.5 0 0 1 21.5 14L3.5 14A3.5 3.5 0 0 1 0 10.5L0 3.5A3.5 3.5 0 0 1 3.5 0" transform="translate(23 224)" fill="#fc8452"></path><text dominant-baseline="central" text-anchor="start" style="font-size:12px;font-family:Microsoft YaHei;" x="30" y="7" transform="translate(23 224)" fill="#333">800</text><path d="M-5 -5l189.0771 0l0 28l-189.0771 0Z" transform="translate(5 5)" fill="rgb(0,0,0)" fill-opacity="0" stroke="#ccc" stroke-width="0"></path><text dominant-baseline="central" text-anchor="start" style="font-size:18px;font-family:Microsoft YaHei;font-weight:bold;" xml:space="preserve" y="9" transform="translate(5 5)" fill="#464646">Codeforces 题目统计</text></g></svg>