<svg xmlns="http://www.w3.org/2000/svg" xmlns:xlink="http://www.w3.org/1999/xlink" version="1.1" baseProfile="full" width="900" height="500" style="position:absolute;left:0;top:0;user-select:none"><rect width="900" height="500" x="0" y="0" id="0" fill="none"></rect><g><path d="M470.7467 51.079L472.3027 36.1599L487.3027 36.1599" fill="none" stroke="#5470c6"></path><path d="M524.8719 64.5433L530.4873 50.634L545.4873 50.634" fill="none" stroke="#91cc75"></path><path d="M597.7701 115.2261L608.8529 105.1181L623.8529 105.1181" fill="none" stroke="#fac858"></path><path d="M649.5385 263.5791L664.5039 264.5976L679.5039 264.5976" fill="none" stroke="#ee6666"></path><path d="M272.9374 342.9991L259.6577 349.974L244.6577 349.974" fill="none" stroke="#73c0de"></path><path d="M450 50A200 200 0 0 1 491.2695 54.3042L465.4761 176.6141A75 75 0 0 0 450 175Z" fill="#5470c6"></path><path d="M491.2695 54.3042A200 200 0 0 1 556.1646 80.5034L489.8117 186.4388A75 75 0 0 0 465.4761 176.6141Z" fill="#91cc75"></path><path d="M556.1646 80.5034A200 200 0 0 1 628.5268 159.8435L516.9475 216.1913A75 75 0 0 0 489.8117 186.4388Z" fill="#fac858"></path><path d="M628.5268 159.8435A200 200 0 0 1 614.6666 363.5117L511.75 292.5669A75 75 0 0 0 516.9475 216.1913Z" fill="#ee6666"></path><path d="M614.6666 363.5117A200 200 0 1 1 450 50L450 175A75 75 0 1 0 511.75 292.5669Z" fill="#73c0de"></path><text dominant-baseline="central" text-anchor="start" style="font-size:12px;font-family:Microsoft YaHei;" xml:space="preserve" transform="translate(492.3027 36.1599)" fill="#333" stroke="rgb(255,255,255)" stroke-width="2" paint-order="stroke" stroke-miterlimit="2">NowCoder: 13 道</text><text dominant-baseline="central" text-anchor="start" style="font-size:12px;font-family:Microsoft YaHei;" xml:space="preserve" transform="translate(550.4873 50.634)" fill="#333" stroke="rgb(255,255,255)" stroke-width="2" paint-order="stroke" stroke-miterlimit="2">CodeForces: 22 道</text><text dominant-baseline="central" text-anchor="start" style="font-size:12px;font-family:Microsoft YaHei;" xml:space="preserve" transform="translate(628.8529 105.1181)" fill="#333" stroke="rgb(255,255,255)" stroke-width="2" paint-order="stroke" stroke-miterlimit="2">AcWing: 34 道</text><text dominant-baseline="central" text-anchor="start" style="font-size:12px;font-family:Microsoft YaHei;" xml:space="preserve" transform="translate(684.5039 264.5976)" fill="#333" stroke="rgb(255,255,255)" stroke-width="2" paint-order="stroke" stroke-miterlimit="2">Luogu: 67 道</text><text dominant-baseline="central" text-anchor="end" style="font-size:12px;font-family:Microsoft YaHei;" xml:space="preserve" transform="translate(239.6577 349.974)" fill="#333" stroke="rgb(255,255,255)" stroke-width="2" paint-order="stroke" stroke-miterlimit="2">LeetCode: 257 道</text><path d="M-5 -5l106.9375 0l0 120l-106.9375 0Z" transform="translate(23 80)" fill="none" stroke="#ccc"></path><path d="M3.5 0L21.5 0A3.5 3.5 0 0 1 25 3.5L25 10.5A3.5 3.5 0 0 1 21.5 14L3.5 14A3.5 3.5 0 0 1 0 10.5L0 3.5A3.5 3.5 0 0 1 3.5 0" transform="translate(23 80)" fill="#5470c6"></path><text dominant-baseline="central" text-anchor="start" style="font-size:12px;font-family:Microsoft YaHei;" x="30" y="7" transform="translate(23 80)" fill="#333">NowCoder</text><path d="M3.5 0L21.5 0A3.5 3.5 0 0 1 25 3.5L25 10.5A3.5 3.5 0 0 1 21.5 14L3.5 14A3.5 3.5 0 0 1 0 10.5L0 3.5A3.5 3.5 0 0 1 3.5 0" transform="translate(23 104)" fill="#91cc75"></path><text dominant-baseline="central" text-anchor="start" style="font-size:12px;font-family:Microsoft YaHei;" x="30" y="7" transform="translate(23 104)" fill="#333">CodeForces</text><path d="M3.5 0L21.5 0A3.5 3.5 0 0 1 25 3.5L25 10.5A3.5 3.5 0 0 1 21.5 14L3.5 14A3.5 3.5 0 0 1 0 10.5L0 3.5A3.5 3.5 0 0 1 3.5 0" transform="translate(23 128)" fill="#fac858"></path><text dominant-baseline="central" text-anchor="start" style="font-size:12px;font-family:Microsoft YaHei;" x="30" y="7" transform="translate(23 128)" fill="#333">AcWing</text><path d="M3.5 0L21.5 0A3.5 3.5 0 0 1 25 3.5L25 10.5A3.5 3.5 0 0 1 21.5 14L3.5 14A3.5 3.5 0 0 1 0 10.5L0 3.5A3.5 3.5 0 0 1 3.5 0" transform="translate(23 152)" fill="#ee6666"></path><text dominant-baseline="central" text-anchor="start" style="font-size:12px;font-family:Microsoft YaHei;" x="30" y="7" transform="translate(23 152)" fill="#333">Luogu</text><path d="M3.5 0L21.5 0A3.5 3.5 0 0 1 25 3.5L25 10.5A3.5 3.5 0 0 1 21.5 14L3.5 14A3.5 3.5 0 0 1 0 10.5L0 3.5A3.5 3.5 0 0 1 3.5 0" transform="translate(23 176)" fill="#73c0de"></path><text dominant-baseline="central" text-anchor="start" style="font-size:12px;font-family:Microsoft YaHei;" x="30" y="7" transform="translate(23 176)" fill="#333">LeetCode</text><path d="M-5 -5l154 0l0 28l-154 0Z" transform="translate(5 5)" fill="rgb(0,0,0)" fill-opacity="0" stroke="#ccc" stroke-width="0"></path><text dominant-baseline="central" text-anchor="start" style="font-size:18px;font-family:Microsoft YaHei;font-weight:bold;" y="9" transform="translate(5 5)" fill="#464646">各平台刷题数统计</text></g></svg>