<svg xmlns="http://www.w3.org/2000/svg" xmlns:xlink="http://www.w3.org/1999/xlink" version="1.1" baseProfile="full" width="900" height="500" style="position:absolute;left:0;top:0;user-select:none"><rect width="900" height="500" x="0" y="0" id="0" fill="none"></rect><g><path d="M511.0944 59.5598L515.6765 45.2768L530.6765 45.2768" fill="none" stroke="#5470c6"></path><path d="M648.887 271.0703L663.8035 272.6506L678.8035 272.6506" fill="none" stroke="#91cc75"></path><path d="M254.1832 290.6912L239.4969 293.743L224.4969 293.743" fill="none" stroke="#fac858"></path><path d="M450 50A200 200 0 0 1 566.3483 87.3253L493.6306 188.997A75 75 0 0 0 450 175Z" fill="#5470c6"></path><path d="M566.3483 87.3253A200 200 0 0 1 529.6802 433.4423L479.8801 318.7908A75 75 0 0 0 493.6306 188.997Z" fill="#91cc75"></path><path d="M529.6802 433.4423A200 200 0 1 1 450 50L450 175A75 75 0 1 0 479.8801 318.7908Z" fill="#fac858"></path><text dominant-baseline="central" text-anchor="start" style="font-size:12px;font-family:Microsoft YaHei;" xml:space="preserve" transform="translate(535.6765 45.2768)" fill="#333" stroke="rgb(255,255,255)" stroke-width="2" paint-order="stroke" stroke-miterlimit="2">困难: 25 道</text><text dominant-baseline="central" text-anchor="start" style="font-size:12px;font-family:Microsoft YaHei;" xml:space="preserve" transform="translate(683.8035 272.6506)" fill="#333" stroke="rgb(255,255,255)" stroke-width="2" paint-order="stroke" stroke-miterlimit="2">简单: 85 道</text><text dominant-baseline="central" text-anchor="end" style="font-size:12px;font-family:Microsoft YaHei;" xml:space="preserve" transform="translate(219.4969 293.743)" fill="#333" stroke="rgb(255,255,255)" stroke-width="2" paint-order="stroke" stroke-miterlimit="2">中等: 143 道</text><path d="M-5 -5l64 0l0 72l-64 0Z" transform="translate(23 80)" fill="none" stroke="#ccc"></path><path d="M3.5 0L21.5 0A3.5 3.5 0 0 1 25 3.5L25 10.5A3.5 3.5 0 0 1 21.5 14L3.5 14A3.5 3.5 0 0 1 0 10.5L0 3.5A3.5 3.5 0 0 1 3.5 0" transform="translate(23 80)" fill="#5470c6"></path><text dominant-baseline="central" text-anchor="start" style="font-size:12px;font-family:Microsoft YaHei;" x="30" y="7" transform="translate(23 80)" fill="#333">困难</text><path d="M3.5 0L21.5 0A3.5 3.5 0 0 1 25 3.5L25 10.5A3.5 3.5 0 0 1 21.5 14L3.5 14A3.5 3.5 0 0 1 0 10.5L0 3.5A3.5 3.5 0 0 1 3.5 0" transform="translate(23 104)" fill="#91cc75"></path><text dominant-baseline="central" text-anchor="start" style="font-size:12px;font-family:Microsoft YaHei;" x="30" y="7" transform="translate(23 104)" fill="#333">简单</text><path d="M3.5 0L21.5 0A3.5 3.5 0 0 1 25 3.5L25 10.5A3.5 3.5 0 0 1 21.5 14L3.5 14A3.5 3.5 0 0 1 0 10.5L0 3.5A3.5 3.5 0 0 1 3.5 0" transform="translate(23 128)" fill="#fac858"></path><text dominant-baseline="central" text-anchor="start" style="font-size:12px;font-family:Microsoft YaHei;" x="30" y="7" transform="translate(23 128)" fill="#333">中等</text><path d="M-5 -5l172 0l0 28l-172 0Z" transform="translate(5 5)" fill="rgb(0,0,0)" fill-opacity="0" stroke="#ccc" stroke-width="0"></path><text dominant-baseline="central" text-anchor="start" style="font-size:18px;font-family:Microsoft YaHei;font-weight:bold;" xml:space="preserve" y="9" transform="translate(5 5)" fill="#464646">LeetCode 题目统计</text></g></svg>