<svg xmlns="http://www.w3.org/2000/svg" xmlns:xlink="http://www.w3.org/1999/xlink" version="1.1" baseProfile="full" width="900" height="500" style="position:absolute;left:0;top:0;user-select:none"><rect width="900" height="500" x="0" y="0" id="0" fill="none"></rect><g><path d="M510.1735 59.2668L514.6866 44.9618L529.6866 44.9618" fill="none" stroke="#5470c6"></path><path d="M648.6529 273.1736L663.5519 274.9116L678.5519 274.9116" fill="none" stroke="#91cc75"></path><path d="M253.5793 287.6684L238.8477 290.4935L223.8477 290.4935" fill="none" stroke="#fac858"></path><path d="M450 50A200 200 0 0 1 564.7709 86.2086L493.0391 188.5782A75 75 0 0 0 450 175Z" fill="#5470c6"></path><path d="M564.7709 86.2086A200 200 0 0 1 523.9885 435.8109L477.7457 319.6791A75 75 0 0 0 493.0391 188.5782Z" fill="#91cc75"></path><path d="M523.9885 435.8109A200 200 0 1 1 450 50L450 175A75 75 0 1 0 477.7457 319.6791Z" fill="#fac858"></path><text dominant-baseline="central" text-anchor="start" style="font-size:12px;font-family:Microsoft YaHei;" xml:space="preserve" transform="translate(534.6866 44.9618)" fill="#333" stroke="rgb(255,255,255)" stroke-width="2" paint-order="stroke" stroke-miterlimit="2">困难: 25 道</text><text dominant-baseline="central" text-anchor="start" style="font-size:12px;font-family:Microsoft YaHei;" xml:space="preserve" transform="translate(683.5519 274.9116)" fill="#333" stroke="rgb(255,255,255)" stroke-width="2" paint-order="stroke" stroke-miterlimit="2">简单: 88 道</text><text dominant-baseline="central" text-anchor="end" style="font-size:12px;font-family:Microsoft YaHei;" xml:space="preserve" transform="translate(218.8477 290.4935)" fill="#333" stroke="rgb(255,255,255)" stroke-width="2" paint-order="stroke" stroke-miterlimit="2">中等: 144 道</text><path d="M-5 -5l64 0l0 72l-64 0Z" transform="translate(23 80)" fill="none" stroke="#ccc"></path><path d="M3.5 0L21.5 0A3.5 3.5 0 0 1 25 3.5L25 10.5A3.5 3.5 0 0 1 21.5 14L3.5 14A3.5 3.5 0 0 1 0 10.5L0 3.5A3.5 3.5 0 0 1 3.5 0" transform="translate(23 80)" fill="#5470c6"></path><text dominant-baseline="central" text-anchor="start" style="font-size:12px;font-family:Microsoft YaHei;" x="30" y="7" transform="translate(23 80)" fill="#333">困难</text><path d="M3.5 0L21.5 0A3.5 3.5 0 0 1 25 3.5L25 10.5A3.5 3.5 0 0 1 21.5 14L3.5 14A3.5 3.5 0 0 1 0 10.5L0 3.5A3.5 3.5 0 0 1 3.5 0" transform="translate(23 104)" fill="#91cc75"></path><text dominant-baseline="central" text-anchor="start" style="font-size:12px;font-family:Microsoft YaHei;" x="30" y="7" transform="translate(23 104)" fill="#333">简单</text><path d="M3.5 0L21.5 0A3.5 3.5 0 0 1 25 3.5L25 10.5A3.5 3.5 0 0 1 21.5 14L3.5 14A3.5 3.5 0 0 1 0 10.5L0 3.5A3.5 3.5 0 0 1 3.5 0" transform="translate(23 128)" fill="#fac858"></path><text dominant-baseline="central" text-anchor="start" style="font-size:12px;font-family:Microsoft YaHei;" x="30" y="7" transform="translate(23 128)" fill="#333">中等</text><path d="M-5 -5l172 0l0 28l-172 0Z" transform="translate(5 5)" fill="rgb(0,0,0)" fill-opacity="0" stroke="#ccc" stroke-width="0"></path><text dominant-baseline="central" text-anchor="start" style="font-size:18px;font-family:Microsoft YaHei;font-weight:bold;" xml:space="preserve" y="9" transform="translate(5 5)" fill="#464646">LeetCode 题目统计</text></g></svg>