<svg xmlns="http://www.w3.org/2000/svg" xmlns:xlink="http://www.w3.org/1999/xlink" version="1.1" baseProfile="full" width="900" height="500" style="position:absolute;left:0;top:0;user-select:none"><rect width="900" height="500" x="0" y="0" id="0" fill="none"></rect><g><path d="M450 50L450 35L465 35" fill="none" stroke="#5470c6"></path><path d="M450 50L521.7204 49.1L536.7204 49.1" fill="none" stroke="#91cc75"></path><path d="M478.041 51.9755L557.3081 63.2L566.5347 63.2" fill="none" stroke="#fac858"></path><path d="M556.6899 80.8336L573.1243 77.3L588.1243 77.3" fill="none" stroke="#ee6666"></path><path d="M637.7597 181.1066L646.849 175.9396L661.849 175.9396" fill="none" stroke="#73c0de"></path><path d="M605.5275 375.7426L617.1921 385.1733L632.1921 385.1733" fill="none" stroke="#3ba272"></path><path d="M343.3101 419.1664L335.3084 431.8539L320.3084 431.8539" fill="none" stroke="#fc8452"></path><path d="M294.4725 124.2574L282.8079 114.8267L267.8079 114.8267" fill="none" stroke="#9a60b4"></path><path d="M450 50L450 175Z" fill="#5470c6"></path><path d="M450 50L450 175Z" fill="#91cc75"></path><path d="M450 50A200 200 0 0 1 505.528 57.863L470.823 177.9486A75 75 0 0 0 450 175Z" fill="#fac858"></path><path d="M505.528 57.863A200 200 0 0 1 599.4627 117.1057L506.0485 200.1646A75 75 0 0 0 470.823 177.9486Z" fill="#ee6666"></path><path d="M599.4627 117.1057A200 200 0 0 1 649.945 254.6885L524.9794 251.7582A75 75 0 0 0 506.0485 200.1646Z" fill="#73c0de"></path><path d="M649.945 254.6885A200 200 0 0 1 496.4611 444.5286L467.4229 322.9482A75 75 0 0 0 524.9794 251.7582Z" fill="#3ba272"></path><path d="M496.4611 444.5286A200 200 0 0 1 254.4357 291.8881L376.6634 265.708A75 75 0 0 0 467.4229 322.9482Z" fill="#fc8452"></path><path d="M254.4357 291.8881A200 200 0 0 1 450 50L450 175A75 75 0 0 0 376.6634 265.708Z" fill="#9a60b4"></path><text dominant-baseline="central" text-anchor="start" style="font-size:12px;font-family:Microsoft YaHei;" xml:space="preserve" transform="translate(470 35)" fill="#333" stroke="rgb(255,255,255)" stroke-width="2" paint-order="stroke" stroke-miterlimit="2">暂未评定: 0 道</text><text dominant-baseline="central" text-anchor="start" style="font-size:12px;font-family:Microsoft YaHei;" xml:space="preserve" transform="translate(541.7204 49.1)" fill="#333" stroke="rgb(255,255,255)" stroke-width="2" paint-order="stroke" stroke-miterlimit="2">NOI/NOI+/CTSC: 0 道</text><text dominant-baseline="central" text-anchor="start" style="font-size:12px;font-family:Microsoft YaHei;" xml:space="preserve" transform="translate(571.5347 63.2)" fill="#333" stroke="rgb(255,255,255)" stroke-width="2" paint-order="stroke" stroke-miterlimit="2">省选/NOI-: 3 道</text><text dominant-baseline="central" text-anchor="start" style="font-size:12px;font-family:Microsoft YaHei;" xml:space="preserve" transform="translate(593.1243 77.3)" fill="#333" stroke="rgb(255,255,255)" stroke-width="2" paint-order="stroke" stroke-miterlimit="2">普及-: 6 道</text><text dominant-baseline="central" text-anchor="start" style="font-size:12px;font-family:Microsoft YaHei;" xml:space="preserve" transform="translate(666.849 175.9396)" fill="#333" stroke="rgb(255,255,255)" stroke-width="2" paint-order="stroke" stroke-miterlimit="2">提高+/省选-: 8 道</text><text dominant-baseline="central" text-anchor="start" style="font-size:12px;font-family:Microsoft YaHei;" xml:space="preserve" transform="translate(637.1921 385.1733)" fill="#333" stroke="rgb(255,255,255)" stroke-width="2" paint-order="stroke" stroke-miterlimit="2">普及/提高-: 14 道</text><text dominant-baseline="central" text-anchor="end" style="font-size:12px;font-family:Microsoft YaHei;" xml:space="preserve" transform="translate(315.3084 431.8539)" fill="#333" stroke="rgb(255,255,255)" stroke-width="2" paint-order="stroke" stroke-miterlimit="2">普及+/提高: 17 道</text><text dominant-baseline="central" text-anchor="end" style="font-size:12px;font-family:Microsoft YaHei;" xml:space="preserve" transform="translate(262.8079 114.8267)" fill="#333" stroke="rgb(255,255,255)" stroke-width="2" paint-order="stroke" stroke-miterlimit="2">入门: 19 道</text><path d="M-5 -5l135.1387 0l0 192l-135.1387 0Z" transform="translate(23 80)" fill="none" stroke="#ccc"></path><path d="M3.5 0L21.5 0A3.5 3.5 0 0 1 25 3.5L25 10.5A3.5 3.5 0 0 1 21.5 14L3.5 14A3.5 3.5 0 0 1 0 10.5L0 3.5A3.5 3.5 0 0 1 3.5 0" transform="translate(23 80)" fill="#5470c6"></path><text dominant-baseline="central" text-anchor="start" style="font-size:12px;font-family:Microsoft YaHei;" x="30" y="7" transform="translate(23 80)" fill="#333">暂未评定</text><path d="M3.5 0L21.5 0A3.5 3.5 0 0 1 25 3.5L25 10.5A3.5 3.5 0 0 1 21.5 14L3.5 14A3.5 3.5 0 0 1 0 10.5L0 3.5A3.5 3.5 0 0 1 3.5 0" transform="translate(23 104)" fill="#91cc75"></path><text dominant-baseline="central" text-anchor="start" style="font-size:12px;font-family:Microsoft YaHei;" x="30" y="7" transform="translate(23 104)" fill="#333">NOI/NOI+/CTSC</text><path d="M3.5 0L21.5 0A3.5 3.5 0 0 1 25 3.5L25 10.5A3.5 3.5 0 0 1 21.5 14L3.5 14A3.5 3.5 0 0 1 0 10.5L0 3.5A3.5 3.5 0 0 1 3.5 0" transform="translate(23 128)" fill="#fac858"></path><text dominant-baseline="central" text-anchor="start" style="font-size:12px;font-family:Microsoft YaHei;" x="30" y="7" transform="translate(23 128)" fill="#333">省选/NOI-</text><path d="M3.5 0L21.5 0A3.5 3.5 0 0 1 25 3.5L25 10.5A3.5 3.5 0 0 1 21.5 14L3.5 14A3.5 3.5 0 0 1 0 10.5L0 3.5A3.5 3.5 0 0 1 3.5 0" transform="translate(23 152)" fill="#ee6666"></path><text dominant-baseline="central" text-anchor="start" style="font-size:12px;font-family:Microsoft YaHei;" x="30" y="7" transform="translate(23 152)" fill="#333">普及-</text><path d="M3.5 0L21.5 0A3.5 3.5 0 0 1 25 3.5L25 10.5A3.5 3.5 0 0 1 21.5 14L3.5 14A3.5 3.5 0 0 1 0 10.5L0 3.5A3.5 3.5 0 0 1 3.5 0" transform="translate(23 176)" fill="#73c0de"></path><text dominant-baseline="central" text-anchor="start" style="font-size:12px;font-family:Microsoft YaHei;" x="30" y="7" transform="translate(23 176)" fill="#333">提高+/省选-</text><path d="M3.5 0L21.5 0A3.5 3.5 0 0 1 25 3.5L25 10.5A3.5 3.5 0 0 1 21.5 14L3.5 14A3.5 3.5 0 0 1 0 10.5L0 3.5A3.5 3.5 0 0 1 3.5 0" transform="translate(23 200)" fill="#3ba272"></path><text dominant-baseline="central" text-anchor="start" style="font-size:12px;font-family:Microsoft YaHei;" x="30" y="7" transform="translate(23 200)" fill="#333">普及/提高-</text><path d="M3.5 0L21.5 0A3.5 3.5 0 0 1 25 3.5L25 10.5A3.5 3.5 0 0 1 21.5 14L3.5 14A3.5 3.5 0 0 1 0 10.5L0 3.5A3.5 3.5 0 0 1 3.5 0" transform="translate(23 224)" fill="#fc8452"></path><text dominant-baseline="central" text-anchor="start" style="font-size:12px;font-family:Microsoft YaHei;" x="30" y="7" transform="translate(23 224)" fill="#333">普及+/提高</text><path d="M3.5 0L21.5 0A3.5 3.5 0 0 1 25 3.5L25 10.5A3.5 3.5 0 0 1 21.5 14L3.5 14A3.5 3.5 0 0 1 0 10.5L0 3.5A3.5 3.5 0 0 1 3.5 0" transform="translate(23 248)" fill="#9a60b4"></path><text dominant-baseline="central" text-anchor="start" style="font-size:12px;font-family:Microsoft YaHei;" x="30" y="7" transform="translate(23 248)" fill="#333">入门</text><path d="M-5 -5l144.3232 0l0 28l-144.3232 0Z" transform="translate(5 5)" fill="rgb(0,0,0)" fill-opacity="0" stroke="#ccc" stroke-width="0"></path><text dominant-baseline="central" text-anchor="start" style="font-size:18px;font-family:Microsoft YaHei;font-weight:bold;" xml:space="preserve" y="9" transform="translate(5 5)" fill="#464646">Luogu 题目统计</text></g></svg>