<svg xmlns="http://www.w3.org/2000/svg" xmlns:xlink="http://www.w3.org/1999/xlink" version="1.1" baseProfile="full" width="900" height="500" style="position:absolute;left:0;top:0;user-select:none"><rect width="900" height="500" x="0" y="0" id="0" fill="none"></rect><g><path d="M450 50L450 35L465 35" fill="none" stroke="#5470c6"></path><path d="M450 50L521.7204 49.1L536.7204 49.1" fill="none" stroke="#91cc75"></path><path d="M477.2333 51.8628L559.7175 63.2L566.5347 63.2" fill="none" stroke="#fac858"></path><path d="M569.0255 89.2738L573.1243 77.3L588.1243 77.3" fill="none" stroke="#ee6666"></path><path d="M645.8168 209.3088L655.5055 206.257L670.5055 206.257" fill="none" stroke="#73c0de"></path><path d="M589.8025 393.0219L600.2877 403.7485L615.2877 403.7485" fill="none" stroke="#3ba272"></path><path d="M330.9745 410.7262L322.0475 422.7807L307.0475 422.7807" fill="none" stroke="#fc8452"></path><path d="M297.7711 120.2836L286.3539 110.5549L271.3539 110.5549" fill="none" stroke="#9a60b4"></path><path d="M450 50L450 175Z" fill="#5470c6"></path><path d="M450 50L450 175Z" fill="#91cc75"></path><path d="M450 50A200 200 0 0 1 503.9594 57.4165L470.2348 177.7812A75 75 0 0 0 450 175Z" fill="#fac858"></path><path d="M503.9594 57.4165A200 200 0 0 1 618.4741 142.2203L513.1778 209.5826A75 75 0 0 0 470.2348 177.7812Z" fill="#ee6666"></path><path d="M618.4741 142.2203A200 200 0 0 1 647.4659 281.7365L524.0497 261.9012A75 75 0 0 0 513.1778 209.5826Z" fill="#73c0de"></path><path d="M647.4659 281.7365A200 200 0 0 1 477.2333 448.1372L460.2125 324.3014A75 75 0 0 0 524.0497 261.9012Z" fill="#3ba272"></path><path d="M477.2333 448.1372A200 200 0 0 1 252.5341 281.7365L375.9503 261.9012A75 75 0 0 0 460.2125 324.3014Z" fill="#fc8452"></path><path d="M252.5341 281.7365A200 200 0 0 1 450 50L450 175A75 75 0 0 0 375.9503 261.9012Z" fill="#9a60b4"></path><text dominant-baseline="central" text-anchor="start" style="font-size:12px;font-family:Microsoft YaHei;" xml:space="preserve" transform="translate(470 35)" fill="#333" stroke="rgb(255,255,255)" stroke-width="2" paint-order="stroke" stroke-miterlimit="2">暂未评定: 0 道</text><text dominant-baseline="central" text-anchor="start" style="font-size:12px;font-family:Microsoft YaHei;" xml:space="preserve" transform="translate(541.7204 49.1)" fill="#333" stroke="rgb(255,255,255)" stroke-width="2" paint-order="stroke" stroke-miterlimit="2">NOI/NOI+/CTSC: 0 道</text><text dominant-baseline="central" text-anchor="start" style="font-size:12px;font-family:Microsoft YaHei;" xml:space="preserve" transform="translate(571.5347 63.2)" fill="#333" stroke="rgb(255,255,255)" stroke-width="2" paint-order="stroke" stroke-miterlimit="2">省选/NOI-: 3 道</text><text dominant-baseline="central" text-anchor="start" style="font-size:12px;font-family:Microsoft YaHei;" xml:space="preserve" transform="translate(593.1243 77.3)" fill="#333" stroke="rgb(255,255,255)" stroke-width="2" paint-order="stroke" stroke-miterlimit="2">普及-: 8 道</text><text dominant-baseline="central" text-anchor="start" style="font-size:12px;font-family:Microsoft YaHei;" xml:space="preserve" transform="translate(675.5055 206.257)" fill="#333" stroke="rgb(255,255,255)" stroke-width="2" paint-order="stroke" stroke-miterlimit="2">提高+/省选-: 8 道</text><text dominant-baseline="central" text-anchor="start" style="font-size:12px;font-family:Microsoft YaHei;" xml:space="preserve" transform="translate(620.2877 403.7485)" fill="#333" stroke="rgb(255,255,255)" stroke-width="2" paint-order="stroke" stroke-miterlimit="2">普及/提高-: 14 道</text><text dominant-baseline="central" text-anchor="end" style="font-size:12px;font-family:Microsoft YaHei;" xml:space="preserve" transform="translate(302.0475 422.7807)" fill="#333" stroke="rgb(255,255,255)" stroke-width="2" paint-order="stroke" stroke-miterlimit="2">普及+/提高: 17 道</text><text dominant-baseline="central" text-anchor="end" style="font-size:12px;font-family:Microsoft YaHei;" xml:space="preserve" transform="translate(266.3539 110.5549)" fill="#333" stroke="rgb(255,255,255)" stroke-width="2" paint-order="stroke" stroke-miterlimit="2">入门: 19 道</text><path d="M-5 -5l135.1387 0l0 192l-135.1387 0Z" transform="translate(23 80)" fill="none" stroke="#ccc"></path><path d="M3.5 0L21.5 0A3.5 3.5 0 0 1 25 3.5L25 10.5A3.5 3.5 0 0 1 21.5 14L3.5 14A3.5 3.5 0 0 1 0 10.5L0 3.5A3.5 3.5 0 0 1 3.5 0" transform="translate(23 80)" fill="#5470c6"></path><text dominant-baseline="central" text-anchor="start" style="font-size:12px;font-family:Microsoft YaHei;" x="30" y="7" transform="translate(23 80)" fill="#333">暂未评定</text><path d="M3.5 0L21.5 0A3.5 3.5 0 0 1 25 3.5L25 10.5A3.5 3.5 0 0 1 21.5 14L3.5 14A3.5 3.5 0 0 1 0 10.5L0 3.5A3.5 3.5 0 0 1 3.5 0" transform="translate(23 104)" fill="#91cc75"></path><text dominant-baseline="central" text-anchor="start" style="font-size:12px;font-family:Microsoft YaHei;" x="30" y="7" transform="translate(23 104)" fill="#333">NOI/NOI+/CTSC</text><path d="M3.5 0L21.5 0A3.5 3.5 0 0 1 25 3.5L25 10.5A3.5 3.5 0 0 1 21.5 14L3.5 14A3.5 3.5 0 0 1 0 10.5L0 3.5A3.5 3.5 0 0 1 3.5 0" transform="translate(23 128)" fill="#fac858"></path><text dominant-baseline="central" text-anchor="start" style="font-size:12px;font-family:Microsoft YaHei;" x="30" y="7" transform="translate(23 128)" fill="#333">省选/NOI-</text><path d="M3.5 0L21.5 0A3.5 3.5 0 0 1 25 3.5L25 10.5A3.5 3.5 0 0 1 21.5 14L3.5 14A3.5 3.5 0 0 1 0 10.5L0 3.5A3.5 3.5 0 0 1 3.5 0" transform="translate(23 152)" fill="#ee6666"></path><text dominant-baseline="central" text-anchor="start" style="font-size:12px;font-family:Microsoft YaHei;" x="30" y="7" transform="translate(23 152)" fill="#333">普及-</text><path d="M3.5 0L21.5 0A3.5 3.5 0 0 1 25 3.5L25 10.5A3.5 3.5 0 0 1 21.5 14L3.5 14A3.5 3.5 0 0 1 0 10.5L0 3.5A3.5 3.5 0 0 1 3.5 0" transform="translate(23 176)" fill="#73c0de"></path><text dominant-baseline="central" text-anchor="start" style="font-size:12px;font-family:Microsoft YaHei;" x="30" y="7" transform="translate(23 176)" fill="#333">提高+/省选-</text><path d="M3.5 0L21.5 0A3.5 3.5 0 0 1 25 3.5L25 10.5A3.5 3.5 0 0 1 21.5 14L3.5 14A3.5 3.5 0 0 1 0 10.5L0 3.5A3.5 3.5 0 0 1 3.5 0" transform="translate(23 200)" fill="#3ba272"></path><text dominant-baseline="central" text-anchor="start" style="font-size:12px;font-family:Microsoft YaHei;" x="30" y="7" transform="translate(23 200)" fill="#333">普及/提高-</text><path d="M3.5 0L21.5 0A3.5 3.5 0 0 1 25 3.5L25 10.5A3.5 3.5 0 0 1 21.5 14L3.5 14A3.5 3.5 0 0 1 0 10.5L0 3.5A3.5 3.5 0 0 1 3.5 0" transform="translate(23 224)" fill="#fc8452"></path><text dominant-baseline="central" text-anchor="start" style="font-size:12px;font-family:Microsoft YaHei;" x="30" y="7" transform="translate(23 224)" fill="#333">普及+/提高</text><path d="M3.5 0L21.5 0A3.5 3.5 0 0 1 25 3.5L25 10.5A3.5 3.5 0 0 1 21.5 14L3.5 14A3.5 3.5 0 0 1 0 10.5L0 3.5A3.5 3.5 0 0 1 3.5 0" transform="translate(23 248)" fill="#9a60b4"></path><text dominant-baseline="central" text-anchor="start" style="font-size:12px;font-family:Microsoft YaHei;" x="30" y="7" transform="translate(23 248)" fill="#333">入门</text><path d="M-5 -5l144.3232 0l0 28l-144.3232 0Z" transform="translate(5 5)" fill="rgb(0,0,0)" fill-opacity="0" stroke="#ccc" stroke-width="0"></path><text dominant-baseline="central" text-anchor="start" style="font-size:18px;font-family:Microsoft YaHei;font-weight:bold;" xml:space="preserve" y="9" transform="translate(5 5)" fill="#464646">Luogu 题目统计</text></g></svg>