<svg xmlns="http://www.w3.org/2000/svg" xmlns:xlink="http://www.w3.org/1999/xlink" version="1.1" baseProfile="full" width="900" height="500" style="position:absolute;left:0;top:0;user-select:none"><rect width="900" height="500" x="0" y="0" id="0" fill="none"></rect><g><path d="M497.8631 55.8116L501.4529 41.2475L516.4529 41.2475" fill="none" stroke="#5470c6"></path><path d="M402.1369 444.1884L398.5471 458.7525L383.5471 458.7525" fill="none" stroke="#91cc75"></path><path d="M450 50A200 200 0 0 1 542.9446 72.9088L484.8542 183.5908A75 75 0 0 0 450 175Z" fill="#5470c6"></path><path d="M542.9446 72.9088A200 200 0 1 1 450 50L450 175A75 75 0 1 0 484.8542 183.5908Z" fill="#91cc75"></path><text dominant-baseline="central" text-anchor="start" style="font-size:12px;font-family:Microsoft YaHei;" xml:space="preserve" transform="translate(521.4529 41.2475)" fill="#333" stroke="rgb(255,255,255)" stroke-width="2" paint-order="stroke" stroke-miterlimit="2">1500: 1 道</text><text dominant-baseline="central" text-anchor="end" style="font-size:12px;font-family:Microsoft YaHei;" xml:space="preserve" transform="translate(378.5471 458.7525)" fill="#333" stroke="rgb(255,255,255)" stroke-width="2" paint-order="stroke" stroke-miterlimit="2">unrated: 12 道</text><path d="M-5 -5l84.8594 0l0 48l-84.8594 0Z" transform="translate(23 80)" fill="none" stroke="#ccc"></path><path d="M3.5 0L21.5 0A3.5 3.5 0 0 1 25 3.5L25 10.5A3.5 3.5 0 0 1 21.5 14L3.5 14A3.5 3.5 0 0 1 0 10.5L0 3.5A3.5 3.5 0 0 1 3.5 0" transform="translate(23 80)" fill="#5470c6"></path><text dominant-baseline="central" text-anchor="start" style="font-size:12px;font-family:Microsoft YaHei;" x="30" y="7" transform="translate(23 80)" fill="#333">1500</text><path d="M3.5 0L21.5 0A3.5 3.5 0 0 1 25 3.5L25 10.5A3.5 3.5 0 0 1 21.5 14L3.5 14A3.5 3.5 0 0 1 0 10.5L0 3.5A3.5 3.5 0 0 1 3.5 0" transform="translate(23 104)" fill="#91cc75"></path><text dominant-baseline="central" text-anchor="start" style="font-size:12px;font-family:Microsoft YaHei;" x="30" y="7" transform="translate(23 104)" fill="#333">unrated</text><path d="M-5 -5l183.8037 0l0 28l-183.8037 0Z" transform="translate(5 5)" fill="rgb(0,0,0)" fill-opacity="0" stroke="#ccc" stroke-width="0"></path><text dominant-baseline="central" text-anchor="start" style="font-size:18px;font-family:Microsoft YaHei;font-weight:bold;" xml:space="preserve" y="9" transform="translate(5 5)" fill="#464646">NowCoder 题目统计</text></g></svg>