<svg xmlns="http://www.w3.org/2000/svg" xmlns:xlink="http://www.w3.org/1999/xlink" version="1.1" baseProfile="full" width="900" height="500" style="position:absolute;left:0;top:0;user-select:none"><rect width="900" height="500" x="0" y="0" id="0" fill="none"></rect><g><path d="M90 430.5L810 430.5" fill="none" stroke="#E0E6F1"></path><path d="M90 368.5L810 368.5" fill="none" stroke="#E0E6F1"></path><path d="M90 306.5L810 306.5" fill="none" stroke="#E0E6F1"></path><path d="M90 245.5L810 245.5" fill="none" stroke="#E0E6F1"></path><path d="M90 183.5L810 183.5" fill="none" stroke="#E0E6F1"></path><path d="M90 121.5L810 121.5" fill="none" stroke="#E0E6F1"></path><path d="M90 60.5L810 60.5" fill="none" stroke="#E0E6F1"></path><path d="M90.5 60L90.5 430" fill="none" stroke="#E0E6F1"></path><path d="M234.5 60L234.5 430" fill="none" stroke="#E0E6F1"></path><path d="M378.5 60L378.5 430" fill="none" stroke="#E0E6F1"></path><path d="M522.5 60L522.5 430" fill="none" stroke="#E0E6F1"></path><path d="M666.5 60L666.5 430" fill="none" stroke="#E0E6F1"></path><path d="M810.5 60L810.5 430" fill="none" stroke="#E0E6F1"></path><path d="M90 430.5L810 430.5" fill="none" stroke="#6E7079" stroke-linecap="round"></path><path d="M90.5 430L90.5 435" fill="none" stroke="#6E7079"></path><path d="M234.5 430L234.5 435" fill="none" stroke="#6E7079"></path><path d="M378.5 430L378.5 435" fill="none" stroke="#6E7079"></path><path d="M522.5 430L522.5 435" fill="none" stroke="#6E7079"></path><path d="M666.5 430L666.5 435" fill="none" stroke="#6E7079"></path><path d="M810.5 430L810.5 435" fill="none" stroke="#6E7079"></path><text dominant-baseline="central" text-anchor="end" style="font-size:12px;font-family:Microsoft YaHei;" transform="translate(82 430)" fill="#6E7079">0</text><text dominant-baseline="central" text-anchor="end" style="font-size:12px;font-family:Microsoft YaHei;" transform="translate(82 368.3333)" fill="#6E7079">300</text><text dominant-baseline="central" text-anchor="end" style="font-size:12px;font-family:Microsoft YaHei;" transform="translate(82 306.6667)" fill="#6E7079">600</text><text dominant-baseline="central" text-anchor="end" style="font-size:12px;font-family:Microsoft YaHei;" transform="translate(82 245)" fill="#6E7079">900</text><text dominant-baseline="central" text-anchor="end" style="font-size:12px;font-family:Microsoft YaHei;" transform="translate(82 183.3333)" fill="#6E7079">1,200</text><text dominant-baseline="central" text-anchor="end" style="font-size:12px;font-family:Microsoft YaHei;" transform="translate(82 121.6667)" fill="#6E7079">1,500</text><text dominant-baseline="central" text-anchor="end" style="font-size:12px;font-family:Microsoft YaHei;" transform="translate(82 60)" fill="#6E7079">1,800</text><text dominant-baseline="central" text-anchor="middle" style="font-size:12px;font-family:Microsoft YaHei;" y="6" transform="translate(162 438)" fill="#6E7079">AcWing</text><text dominant-baseline="central" text-anchor="middle" style="font-size:12px;font-family:Microsoft YaHei;" y="6" transform="translate(306 438)" fill="#6E7079">AtCoder</text><text dominant-baseline="central" text-anchor="middle" style="font-size:12px;font-family:Microsoft YaHei;" y="6" transform="translate(450 438)" fill="#6E7079">CodeForces</text><text dominant-baseline="central" text-anchor="middle" style="font-size:12px;font-family:Microsoft YaHei;" y="6" transform="translate(594 438)" fill="#6E7079">LeetCode</text><text dominant-baseline="central" text-anchor="middle" style="font-size:12px;font-family:Microsoft YaHei;" y="6" transform="translate(738 438)" fill="#6E7079">NowCoder</text><path d="M104.4 430l115.2 0l0 -312.65l-115.2 0Z" fill="#749f83"></path><path d="M248.4 430l115.2 0l0 0l-115.2 0Z" fill="#749f83"></path><path d="M392.4 430l115.2 0l0 -229.8111l-115.2 0Z" fill="#749f83"></path><path d="M536.4 430l115.2 0l0 -359.3111l-115.2 0Z" fill="#749f83"></path><path d="M680.4 430l115.2 0l0 -286.3389l-115.2 0Z" fill="#749f83"></path><text dominant-baseline="central" text-anchor="middle" style="font-size:12px;font-family:Microsoft YaHei;" xml:space="preserve" transform="translate(162 273.675)" fill="#333">AcWing: 1521</text><text dominant-baseline="central" text-anchor="middle" style="font-size:12px;font-family:Microsoft YaHei;" xml:space="preserve" transform="translate(306 430)" fill="#333">AtCoder: 0</text><text dominant-baseline="central" text-anchor="middle" style="font-size:12px;font-family:Microsoft YaHei;" xml:space="preserve" transform="translate(450 315.0944)" fill="#333">CodeForces: 1118</text><text dominant-baseline="central" text-anchor="middle" style="font-size:12px;font-family:Microsoft YaHei;" xml:space="preserve" transform="translate(594 250.3444)" fill="#333">LeetCode: 1748</text><text dominant-baseline="central" text-anchor="middle" style="font-size:12px;font-family:Microsoft YaHei;" xml:space="preserve" transform="translate(738 286.8306)" fill="#333">NowCoder: 1393</text><path d="M-5 -5l77.2012 0l0 24l-77.2012 0Z" transform="translate(416.3994 5)" fill="none" stroke="#ccc"></path><path d="M3.5 0L21.5 0A3.5 3.5 0 0 1 25 3.5L25 10.5A3.5 3.5 0 0 1 21.5 14L3.5 14A3.5 3.5 0 0 1 0 10.5L0 3.5A3.5 3.5 0 0 1 3.5 0" transform="translate(416.3994 5)" fill="#749f83"></path><text dominant-baseline="central" text-anchor="start" style="font-size:12px;font-family:Microsoft YaHei;" x="30" y="7" transform="translate(416.3994 5)" fill="#333">Rating</text><path d="M-5 -5l154.4307 0l0 28l-154.4307 0Z" transform="translate(5 5)" fill="rgb(0,0,0)" fill-opacity="0" stroke="#ccc" stroke-width="0"></path><text dominant-baseline="central" text-anchor="start" style="font-size:18px;font-family:Microsoft YaHei;font-weight:bold;" y="9" transform="translate(5 5)" fill="#464646">各平台rating统计</text></g></svg>