<?xml version="1.0" encoding="UTF-8"?>
<svg width="99.1132294px" height="33.9999606px" viewBox="0 0 99.1132294 33.9999606" version="1.1" xmlns="http://www.w3.org/2000/svg" xmlns:xlink="http://www.w3.org/1999/xlink">
    <title>logo</title>
    <defs>
        <polygon id="path-1" points="0 0 33.9998687 0 33.9998687 33.9999606 0 33.9999606"></polygon>
        <polygon id="path-3" points="0 34 99.1132819 34 99.1132819 0 0 0"></polygon>
    </defs>
    <g id="页面-1" stroke="none" stroke-width="1" fill="none" fill-rule="evenodd">
        <g id="0-营销产品-导航" transform="translate(-120.0001, -14)">
            <g id="logo" transform="translate(120, 14)">
                <g id="编组" transform="translate(0.0001, 0)">
                    <mask id="mask-2" fill="white">
                        <use xlink:href="#path-1"></use>
                    </mask>
                    <g id="Clip-2"></g>
                    <path d="M20.4973928,17.6265259 L20.500282,17.6294151 C20.7020016,16.4712346 21.0351804,15.2402983 21.2527907,14.6028328 C21.4773614,13.9447488 21.8437662,13.6164291 21.8437662,13.6164291 C21.8437662,13.6164291 22.137284,13.3096472 22.5580585,13.1292027 C22.9545374,12.9590018 23.2068182,12.8555154 23.9366073,12.6675852 C24.9445487,12.4625824 25.7032299,11.5713914 25.7032299,10.5029078 C25.7032299,9.28300308 24.7140683,8.29397282 23.4941636,8.29397282 C22.4112339,8.29397282 21.512032,9.07379777 21.3231825,10.1020951 C21.14195,10.8008907 21.0385949,11.0538282 20.8716772,11.4428214 C20.691364,11.8635959 20.3844508,12.1571137 20.3844508,12.1571137 C20.3844508,12.1571137 20.0561311,12.5235185 19.3980471,12.7482205 C18.7604502,12.9658308 17.529514,13.2990096 16.3714648,13.5005979 L16.374354,13.5034871 C14.7102984,13.7998942 13.4458736,15.2508046 13.4458736,16.9999606 C13.4458736,18.9634437 15.0375675,20.5550063 17.0009193,20.5550063 C18.7500753,20.5550063 20.2009857,19.2905815 20.4973928,17.6265259 M8.73632452,14.4461587 C10.1467859,14.4461587 11.2901265,15.5894992 11.2901265,16.9999606 C11.2901265,18.410422 10.1467859,19.5537625 8.73632452,19.5537625 C8.01638508,19.5537625 7.3673627,19.254729 6.90298732,18.7756449 C6.90167404,18.7745942 6.90049209,18.7752509 6.89904749,18.7738063 C6.79490448,18.6718958 6.34628844,18.2695072 6.10267523,18.064767 C5.85906201,17.8600269 5.70317582,17.7753204 5.55530062,17.6936345 C5.4072941,17.6120798 5.22579898,17.6143124 5.22579898,17.6143124 C5.22579898,17.6143124 5.01055258,17.60814 4.8142174,17.7351341 C4.61775089,17.8621281 4.52897325,17.9174172 4.32502105,18.089982 C4.12120018,18.2624155 3.8254498,18.5255966 3.75834125,18.5881086 L3.75834125,18.5864014 C3.35936715,18.9747379 2.81527575,19.214674 2.21471336,19.214674 C0.991525489,19.214674 0,18.2231485 0,16.9999606 C0,15.7767727 0.991525489,14.7852472 2.21471336,14.7852472 C2.81527575,14.7852472 3.35936715,15.0253146 3.75834125,15.4135198 L3.75834125,15.4118126 C3.8254498,15.474456 4.12120018,15.7375057 4.32502105,15.9100705 C4.52897325,16.0826354 4.61775089,16.1377931 4.8142174,16.2647871 C5.01055258,16.3919125 5.22579898,16.3857401 5.22579898,16.3857401 C5.22579898,16.3857401 5.4072941,16.3879727 5.55530062,16.3062867 C5.70317582,16.2246008 5.85906201,16.1398943 6.10267523,15.9351542 C6.34628844,15.730414 6.79490448,15.3280254 6.89904749,15.2261149 C6.90049209,15.2246703 6.90167404,15.225327 6.90298732,15.2242763 C7.3673627,14.7450609 8.01638508,14.4461587 8.73632452,14.4461587 M25.2635442,19.5537625 C23.8532141,19.5537625 22.7098735,18.410422 22.7098735,16.9999606 C22.7098735,15.5894992 23.8532141,14.4461587 25.2635442,14.4461587 C25.9834836,14.4461587 26.6326373,14.7451922 27.0968813,15.2242763 C27.098326,15.225327 27.0993766,15.2246703 27.1008212,15.2261149 C27.2049642,15.3280254 27.6535802,15.730414 27.8973248,15.9351542 C28.1408067,16.1398943 28.2968242,16.2247321 28.4446994,16.3062867 C28.5927059,16.3879727 28.7740697,16.3857401 28.7740697,16.3857401 C28.7740697,16.3857401 28.9893161,16.3919125 29.1856513,16.2647871 C29.3821178,16.1377931 29.4708954,16.0826354 29.6748476,15.9100705 C29.8787998,15.7375057 30.1745502,15.474456 30.2415274,15.4119439 L30.2415274,15.4135198 C30.6405015,15.0253146 31.1845929,14.7852472 31.7851553,14.7852472 C33.0084745,14.7852472 33.9998687,15.7769041 33.9998687,16.9999606 C33.9998687,18.2231485 33.0084745,19.214674 31.7851553,19.214674 C31.1845929,19.214674 30.6405015,18.9747379 30.2415274,18.5864014 L30.2415274,18.5881086 C30.1745502,18.5255966 29.8787998,18.2624155 29.6748476,18.089982 C29.4708954,17.9174172 29.3821178,17.8622595 29.1856513,17.7351341 C28.9893161,17.60814 28.7740697,17.6143124 28.7740697,17.6143124 C28.7740697,17.6143124 28.5927059,17.6120798 28.4446994,17.6936345 C28.2968242,17.7753204 28.1408067,17.8600269 27.8973248,18.064767 C27.6535802,18.2695072 27.2049642,18.6718958 27.1008212,18.7738063 C27.0993766,18.7752509 27.098326,18.7745942 27.0968813,18.7756449 C26.6326373,19.2548603 25.9834836,19.5537625 25.2635442,19.5537625 M14.4461981,25.2636361 C14.4461981,23.8531747 15.5895386,22.7099655 17,22.7099655 C18.4103301,22.7099655 19.5536706,23.8531747 19.5536706,25.2636361 C19.5536706,25.9835755 19.2547684,26.6325979 18.7756843,27.096842 C18.7746336,27.0982866 18.7752903,27.0994685 18.7738457,27.1009131 C18.6719352,27.2050561 18.2694153,27.6536722 18.0648064,27.8972854 C17.859935,28.1408986 17.7752285,28.2967848 17.6935425,28.44466 C17.6119879,28.5926665 17.6142205,28.7741616 17.6142205,28.7741616 C17.6142205,28.7741616 17.6080481,28.9892767 17.7351735,29.1857432 C17.8621675,29.3822097 17.9173252,29.4709874 18.0898901,29.6749396 C18.2623236,29.8787604 18.5255046,30.1745108 18.5880167,30.2416194 L18.5863095,30.2416194 C18.974646,30.6405934 19.2147134,31.1845535 19.2147134,31.7852472 C19.2147134,33.0084351 18.2231879,33.9999606 17,33.9999606 C15.7768121,33.9999606 14.7851553,33.0084351 14.7851553,31.7852472 C14.7851553,31.1845535 15.0252227,30.6405934 15.4135592,30.2416194 L15.4117206,30.2416194 C15.474364,30.1745108 15.7375451,29.8787604 15.9099786,29.6749396 C16.0825434,29.4709874 16.1377011,29.3822097 16.2648265,29.1857432 C16.3918206,28.9892767 16.3856482,28.7741616 16.3856482,28.7741616 C16.3856482,28.7741616 16.3878808,28.5926665 16.3063261,28.44466 C16.2246402,28.2967848 16.1399337,28.1408986 15.9351936,27.8972854 C15.7304534,27.6536722 15.3280648,27.2050561 15.226023,27.1009131 C15.2247097,27.0994685 15.225235,27.0984179 15.2243157,27.0969733 C14.744969,26.6327292 14.4461981,25.9835755 14.4461981,25.2636361 M19.5536706,8.73628512 C19.5536706,10.1467465 18.4103301,11.2900871 17,11.2900871 C15.5895386,11.2900871 14.4461981,10.1467465 14.4461981,8.73628512 C14.4461981,8.01647701 14.7451003,7.36732331 15.2243157,6.90307925 C15.225235,6.90163465 15.2247097,6.90058402 15.226023,6.89913942 C15.3280648,6.79499641 15.7304534,6.34638037 15.9351936,6.10263583 C16.1399337,5.85902261 16.2246402,5.70313642 16.3063261,5.55526123 C16.3878808,5.40738603 16.3856482,5.22589091 16.3856482,5.22589091 C16.3856482,5.22589091 16.3918206,5.01064451 16.2648265,4.814178 C16.1378325,4.61784282 16.0825434,4.52906518 15.9099786,4.32511298 C15.7375451,4.12116078 15.474364,3.8254104 15.411852,3.75830185 L15.4135592,3.75830185 C15.0252227,3.35932776 14.7851553,2.81536768 14.7851553,2.21467396 C14.7851553,0.991617419 15.7768121,-3.93983637e-05 17,-3.93983637e-05 C18.2231879,-3.93983637e-05 19.2147134,0.991617419 19.2147134,2.21467396 C19.2147134,2.81536768 18.974646,3.35932776 18.5863095,3.75830185 L18.588148,3.75830185 C18.5255046,3.8254104 18.2623236,4.12116078 18.0898901,4.32511298 C17.9173252,4.52906518 17.8622989,4.61784282 17.7351735,4.814178 C17.6080481,5.01064451 17.6142205,5.22589091 17.6142205,5.22589091 C17.6142205,5.22589091 17.6119879,5.40738603 17.6935425,5.55526123 C17.7752285,5.70313642 17.859935,5.85902261 18.0648064,6.10263583 C18.2694153,6.34638037 18.6719352,6.79499641 18.7738457,6.89913942 C18.7752903,6.90058402 18.7746336,6.90163465 18.7756843,6.90307925 C19.2548997,7.36732331 19.5536706,8.01647701 19.5536706,8.73628512 M27.4607909,5.05621529 C26.6414363,5.05621529 25.9773112,5.7204717 25.9773112,6.53982634 C25.9773112,7.35918098 26.6414363,8.02343739 27.4607909,8.02343739 C28.2801455,8.02343739 28.944402,7.35918098 28.944402,6.53982634 C28.944402,5.7204717 28.2801455,5.05621529 27.4607909,5.05621529 M27.4480521,25.9657149 C26.6286975,25.9657149 25.964441,26.6299713 25.964441,27.4491947 C25.964441,28.2686806 26.6286975,28.9328057 27.4480521,28.9328057 C28.2674067,28.9328057 28.9316632,28.2686806 28.9316632,27.4491947 C28.9316632,26.6299713 28.2674067,25.9657149 27.4480521,25.9657149 M6.54892736,25.9662402 C5.72957272,25.9662402 5.06531631,26.6304967 5.06531631,27.4498513 C5.06531631,28.2692059 5.72957272,28.933331 6.54892736,28.933331 C7.368282,28.933331 8.03253841,28.2692059 8.03253841,27.4498513 C8.03253841,26.6304967 7.368282,25.9662402 6.54892736,25.9662402 M6.54078503,5.05621529 C5.72129906,5.05621529 5.05717398,5.7204717 5.05717398,6.53982634 C5.05717398,7.35918098 5.72129906,8.02343739 6.54078503,8.02343739 C7.36013967,8.02343739 8.02426476,7.35918098 8.02426476,6.53982634 C8.02426476,5.7204717 7.36013967,5.05621529 6.54078503,5.05621529 M10.5058364,8.29397282 C9.28580037,8.29397282 8.29677011,9.28287175 8.29677011,10.5029078 C8.29677011,11.7229438 9.28580037,12.711974 10.5058364,12.711974 C11.7258724,12.711974 12.7147713,11.7229438 12.7147713,10.5029078 C12.7147713,9.28287175 11.7258724,8.29397282 10.5058364,8.29397282 M10.5058364,21.2879472 C9.28580037,21.2879472 8.29677011,22.2769775 8.29677011,23.4970134 C8.29677011,24.7170494 9.28580037,25.7060797 10.5058364,25.7060797 C11.7258724,25.7060797 12.7147713,24.7170494 12.7147713,23.4970134 C12.7147713,22.2769775 11.7258724,21.2879472 10.5058364,21.2879472 M25.7032299,23.4970134 C25.7032299,24.7170494 24.7140683,25.7060797 23.4940323,25.7060797 C22.2739963,25.7060797 21.2850974,24.7170494 21.2850974,23.4970134 C21.2850974,22.2769775 22.2739963,21.2879472 23.4940323,21.2879472 C24.7140683,21.2879472 25.7032299,22.2769775 25.7032299,23.4970134" id="Fill-1" fill="#3E3EFF" mask="url(#mask-2)"></path>
                </g>
                <path d="M39.4961374,23.6731241 L39.1156805,23.6731241 C38.903586,23.6731241 38.7314152,23.5013473 38.7314152,23.2892527 L38.7314152,10.923157 C38.7314152,10.6505203 38.9523087,10.4300208 39.22442,10.4300208 L42.6863543,10.4300208 C42.9588596,10.4300208 43.1794904,10.6505203 43.1794904,10.923157 L43.1794904,18.7095869 C43.1794904,19.375288 42.6397329,19.9149142 41.9740318,19.9149142 L41.2685385,19.9149142 C41.0569693,19.9149142 40.8846671,19.7431373 40.8846671,19.5310428 L40.8846671,19.150192 C40.8846671,18.9380974 41.0569693,18.7663206 41.2685385,18.7663206 L41.6468941,18.7663206 C41.8589886,18.7663206 42.0307655,18.5945437 42.0307655,18.3824492 L42.0307655,11.6878792 C42.0307655,11.6273371 41.9821742,11.5787457 41.921632,11.5787457 L39.9891423,11.5787457 C39.9287314,11.5787457 39.8800088,11.6273371 39.8800088,11.6878792 L39.8800088,23.2892527 C39.8800088,23.5013473 39.7081006,23.6731241 39.4961374,23.6731241" id="Fill-3" fill="#333333"></path>
                <path d="M52.2602092,11.5645361 L44.59946,11.5645361 C44.3878908,11.5645361 44.2159826,11.3931532 44.2159826,11.18119 L44.2159826,10.7998138 C44.2159826,10.5878506 44.3878908,10.4163364 44.59946,10.4163364 L52.2602092,10.4163364 C52.4721724,10.4163364 52.6435553,10.5878506 52.6435553,10.7998138 L52.6435553,11.18119 C52.6435553,11.3931532 52.4721724,11.5645361 52.2602092,11.5645361" id="Fill-5" fill="#333333"></path>
                <path d="M48.0379641,23.2920894 L48.0379641,22.9065108 C48.03744,22.6957295 48.2080349,22.5252659 48.4182909,22.5247406 L50.1460405,22.5226394 C50.3566904,22.5222454 50.5268913,22.3512565 50.5268913,22.1408692 L50.5268913,11.3817014 C50.5268913,11.1714455 50.6978802,11.0008505 50.9081361,11.0008505 L51.2937148,11.0008505 C51.504496,11.0008505 51.6754849,11.1714455 51.6754849,11.3817014 L51.6754849,22.4662997 C51.6754849,23.1308188 51.137172,23.6699197 50.4726529,23.670839 L48.4196042,23.6729403 C48.2093482,23.6729403 48.0383593,23.5027393 48.0379641,23.2920894" id="Fill-7" fill="#333333"></path>
                <path d="M45.5287492,14.680881 L45.5287492,18.7654407 L47.7946804,18.7632081 L47.7946804,14.6782544 L45.5287492,14.680881 Z M44.3800243,19.5335774 L44.3800243,13.9144515 C44.3800243,13.7040642 44.5506192,13.5330753 44.7617944,13.5330753 L48.56111,13.5288721 C48.7718912,13.5284788 48.9432741,13.6998617 48.9432741,13.910643 L48.9432741,19.5292436 C48.9432741,19.7400249 48.7726792,19.9106198 48.5620292,19.9106198 L44.7621884,19.9153476 C44.5511445,19.9153476 44.3800243,19.7447527 44.3800243,19.5335774 L44.3800243,19.5335774 Z" id="Fill-9" fill="#333333"></path>
                <path d="M56.5904308,16.1749851 L64.8386096,16.1749851 C65.0455824,16.1749851 65.2130254,16.0074108 65.2130254,15.800832 L65.2130254,11.9215378 C65.2130254,11.7150903 65.0455824,11.547516 64.8386096,11.547516 L56.5904308,11.547516 C56.3838521,11.547516 56.2157524,11.7150903 56.2157524,11.9215378 L56.2157524,15.800832 C56.2157524,16.0074108 56.3838521,16.1749851 56.5904308,16.1749851 M65.1048112,17.2690777 L56.3242292,17.2690777 C55.6606294,17.2690777 55.1221851,16.7306334 55.1221851,16.0670336 L55.1221851,11.6557301 C55.1221851,10.9917364 55.6606294,10.4534234 56.3242292,10.4534234 L65.1048112,10.4534234 C65.768805,10.4534234 66.307118,10.9917364 66.307118,11.6557301 L66.307118,16.0670336 C66.307118,16.7306334 65.768805,17.2690777 65.1048112,17.2690777" id="Fill-11" fill="#333333"></path>
                <mask id="mask-4" fill="white">
                    <use xlink:href="#path-3"></use>
                </mask>
                <g id="Clip-14"></g>
                <polygon id="Fill-13" fill="#333333" mask="url(#mask-4)" points="55.6692314 14.4079816 65.760203 14.4079816 65.760203 13.3138891 55.6692314 13.3138891"></polygon>
                <path d="M66.1104151,20.3393922 L55.3364072,20.3393922 C55.124838,20.3393922 54.9534551,20.1680093 54.9534551,19.9563088 L54.9534551,19.628383 C54.9534551,19.4168138 55.124838,19.2452996 55.3364072,19.2452996 L66.1104151,19.2452996 C66.3219843,19.2452996 66.4933672,19.4168138 66.4933672,19.628383 L66.4933672,19.9563088 C66.4933672,20.1680093 66.3219843,20.3393922 66.1104151,20.3393922" id="Fill-15" fill="#333333" mask="url(#mask-4)"></path>
                <path d="M67.0436966,23.6731241 L54.3651718,23.6731241 C54.1539966,23.6731241 53.9830077,23.5021352 53.9830077,23.29096 L53.9830077,22.961327 C53.9830077,22.7501518 54.1539966,22.5790316 54.3651718,22.5790316 L67.0436966,22.5790316 C67.2547406,22.5790316 67.4258608,22.7501518 67.4258608,22.961327 L67.4258608,23.29096 C67.4258608,23.5021352 67.2547406,23.6731241 67.0436966,23.6731241" id="Fill-16" fill="#333333" mask="url(#mask-4)"></path>
                <polygon id="Fill-17" fill="#333333" mask="url(#mask-4)" points="60.1576244 23.1260516 61.2511916 23.1260516 61.2511916 10.9905676 60.1576244 10.9905676"></polygon>
                <path d="M69.4131142,23.4263722 L69.3496829,23.1056695 C69.3089712,22.9038186 69.4384605,22.7132618 69.6370283,22.6582354 C73.1189243,21.6873284 73.222542,17.363752 73.222542,16.8584023 L73.222542,13.164937 L69.1046251,13.164937 C68.8925305,13.164937 68.7203597,12.9926348 68.7203597,12.7802776 L68.7203597,12.4551098 C68.7203597,12.2427526 68.8925305,12.0708444 69.1046251,12.0708444 L73.9318439,12.0708444 C74.1443324,12.0708444 74.3166346,12.2427526 74.3166346,12.4551098 L74.3166346,16.8584023 C74.3166346,17.4551562 74.1887213,22.5790447 69.8795909,23.7264564 C69.6692036,23.782796 69.4557958,23.63978 69.4131142,23.4263722" id="Fill-18" fill="#333333" mask="url(#mask-4)"></path>
                <path d="M74.9886394,23.4276461 C74.9446445,23.6401346 74.732156,23.7814434 74.5221627,23.7239218 C71.0023129,22.7581365 70.0571462,18.9812781 70.0571462,17.055486 L70.0571462,10.6458975 C70.0571462,10.4343283 70.2290544,10.2624201 70.4410176,10.2624201 L70.767236,10.2624201 C70.9789366,10.2624201 71.1512387,10.4343283 71.1512387,10.6458975 L71.1512387,17.055486 C71.1512387,17.1030267 71.1936576,21.6398796 74.7697158,22.6574081 C74.9678896,22.7136164 75.0960656,22.9036478 75.054566,23.1051048 L74.9886394,23.4276461 Z" id="Fill-19" fill="#333333" mask="url(#mask-4)"></path>
                <path d="M82.0036625,16.3100953 L80.9095699,16.3100953 L80.9095699,11.8962966 C80.9095699,11.683808 80.7376617,11.5116372 80.5253046,11.5116372 L75.8089264,11.5116372 C75.5986705,11.5116372 75.4280756,11.3414363 75.4280756,11.1307863 L75.4280756,10.7993148 C75.4280756,10.5881395 75.5986705,10.4179386 75.8089264,10.4179386 L80.804639,10.4179386 C81.4665315,10.4179386 82.0036625,10.9546757 82.0036625,11.6169622 L82.0036625,16.3100953 Z" id="Fill-20" fill="#333333" mask="url(#mask-4)"></path>
                <path d="M81.7358718,23.6842739 L79.7360109,23.6842739 C79.525361,23.6842739 79.3542407,23.513285 79.3542407,23.3025037 L79.3542407,22.9719515 C79.3542407,22.7611702 79.525361,22.5901813 79.7360109,22.5901813 L81.4653364,22.5901813 C81.6761176,22.5901813 81.8476318,22.4197177 81.8476318,22.2089365 L81.8476318,17.0591763 L77.1543674,16.9655396 C76.4996979,16.9525381 75.975831,16.4179023 75.975831,15.7628388 L75.975831,13.1286642 C75.975831,12.917883 76.1462946,12.7468941 76.3570759,12.7468941 L76.6876281,12.7468941 C76.8982781,12.7468941 77.0693983,12.917883 77.0693983,13.1286642 L77.0693983,15.495324 C77.0693983,15.7034786 77.2356594,15.8728916 77.4434201,15.8770941 L82.567046,15.9791359 C82.7748067,15.9833384 82.9411991,16.153014 82.9411991,16.3603807 L82.9411991,22.4784213 C82.9411991,23.1446476 82.4015728,23.6842739 81.7358718,23.6842739" id="Fill-21" fill="#333333" mask="url(#mask-4)"></path>
                <path d="M81.9796689,20.3567669 L75.8641235,20.3567669 C75.6537363,20.3567669 75.4827474,20.1861719 75.4827474,19.9753907 L75.4827474,19.6436565 C75.4827474,19.4332692 75.6537363,19.2626743 75.8641235,19.2626743 L81.9796689,19.2626743 L81.9796689,20.3567669 Z" id="Fill-22" fill="#333333" mask="url(#mask-4)"></path>
                <path d="M85.5854203,23.4251508 L85.5218576,23.1048421 C85.4812773,22.9024659 85.6106352,22.7124344 85.809203,22.6574081 C89.2910991,21.686501 89.3948481,17.3623993 89.3948481,16.8571809 L89.3948481,13.1637157 L85.2767998,13.1637157 C85.0647052,13.1637157 84.8921404,12.9918075 84.8921404,12.7793189 L84.8921404,12.4542824 C84.8921404,12.2419253 85.0647052,12.0696231 85.2767998,12.0696231 L90.1040186,12.0696231 C90.3165071,12.0696231 90.4884153,12.2419253 90.4884153,12.4542824 L90.4884153,16.8571809 C90.4884153,17.4539348 90.3610273,22.5778234 86.0517656,23.725629 C85.8413783,23.7814434 85.6279705,23.6388213 85.5854203,23.4251508" id="Fill-23" fill="#333333" mask="url(#mask-4)"></path>
                <path d="M91.1608272,23.4263722 C91.1168324,23.6388607 90.9038186,23.7801695 90.6943506,23.7226479 C87.1745008,22.7568627 86.229334,18.9803982 86.229334,17.0547375 L86.229334,10.6450177 C86.229334,10.4330545 86.4012422,10.2611463 86.6132054,10.2611463 L86.9391612,10.2611463 C87.1512557,10.2611463 87.3234266,10.4330545 87.3234266,10.6450177 L87.3234266,17.0547375 C87.3234266,17.1021468 87.3658455,21.6387371 90.942035,22.6565282 C91.1400774,22.7123425 91.2682534,22.9028993 91.2267538,23.1038309 L91.1608272,23.4263722 Z" id="Fill-24" fill="#333333" mask="url(#mask-4)"></path>
                <path d="M98.1758372,16.308887 L97.0817447,16.308887 L97.0817447,11.8950883 C97.0817447,11.6825998 96.9098365,11.510823 96.6974793,11.510823 L91.9811011,11.510823 C91.7708452,11.510823 91.6002503,11.340228 91.6002503,11.1298408 L91.6002503,10.7981066 C91.6002503,10.5873253 91.7708452,10.4167304 91.9811011,10.4167304 L96.9768137,10.4167304 C97.6387062,10.4167304 98.1758372,10.9538614 98.1758372,11.6157539 L98.1758372,16.308887 Z" id="Fill-25" fill="#333333" mask="url(#mask-4)"></path>
                <path d="M97.9080465,23.6830525 L95.9079229,23.6830525 C95.6970104,23.6830525 95.5264154,23.5124576 95.5264154,23.3016764 L95.5264154,22.9707301 C95.5264154,22.7599489 95.6970104,22.5893539 95.9079229,22.5893539 L97.6375111,22.5893539 C97.8482924,22.5893539 98.0194126,22.4184964 98.0194126,22.2077151 L98.0194126,17.058349 L93.3265421,16.9643182 C92.6714787,16.9517107 92.1474804,16.416681 92.1474804,15.7620115 L92.1474804,13.1278369 C92.1474804,12.9170556 92.3184693,12.7456727 92.5292506,12.7456727 L92.8598029,12.7456727 C93.0704528,12.7456727 93.241573,12.9170556 93.241573,13.1278369 L93.241573,15.4941026 C93.241573,15.7022573 93.4078341,15.8720642 93.6152008,15.8762667 L98.7392207,15.9783085 C98.9469814,15.982511 99.1133738,16.1517926 99.1133738,16.3595533 L99.1133738,22.4777252 C99.1133738,23.1438203 98.5732222,23.6830525 97.9080465,23.6830525" id="Fill-26" fill="#333333" mask="url(#mask-4)"></path>
                <path d="M98.1518567,20.3555455 L92.0363114,20.3555455 C91.8259241,20.3555455 91.6549352,20.1849506 91.6549352,19.9746947 L91.6549352,19.6428291 C91.6549352,19.4320479 91.8259241,19.2614529 92.0363114,19.2614529 L98.1518567,19.2614529 L98.1518567,20.3555455 Z" id="Fill-27" fill="#333333" mask="url(#mask-4)"></path>
            </g>
        </g>
    </g>
</svg>